<?xml version="1.0" encoding="utf-8"?>
<!-- Generator: Adobe Illustrator 26.0.0, SVG Export Plug-In . SVG Version: 6.00 Build 0)  -->
<svg version="1.1" id="Layer_1" xmlns="http://www.w3.org/2000/svg" xmlns:xlink="http://www.w3.org/1999/xlink" x="0px" y="0px"
	 viewBox="0 0 336.7 206.7" style="enable-background:new 0 0 336.7 206.7;" xml:space="preserve">
<style type="text/css">
	.st0{fill:#020202;}
</style>
<g>
	<path class="st0" d="M98.3,108c0,17,0,33.6,0,51.9c-14.2-2.3-27.8-4.4-41.3-6.8c-1.5-0.3-3.5-2.2-3.7-3.7
		c-2.3-13.5-4.2-27.1-6.4-41.4C65,108,81.2,108,98.3,108z"/>
	<path class="st0" d="M98.6,47.2c0,18.2,0,34.7,0,51.7c-16.6,0-33.2,0-51.9,0c2.3-14.1,4.5-27.7,6.9-41.2c0.2-1.4,1.8-3.3,3-3.5
		C70.4,51.7,84.1,49.5,98.6,47.2z"/>
	<path class="st0" d="M107.9,47.3c14.1,2.3,27.7,4.4,41.2,6.9c1.4,0.2,3.1,2.4,3.4,3.9c2.4,13.3,4.6,26.7,7,41
		c-18.3,0-34.7,0-51.6,0C107.9,82.2,107.9,65.6,107.9,47.3z"/>
	<path class="st0" d="M159.5,108.1c-2.4,14.3-4.5,27.7-7,41.1c-0.3,1.6-2.5,3.7-4.1,4c-13.1,2.4-26.3,4.4-40.4,6.7
		c0-18,0-34.6,0-51.8C124.3,108.1,140.7,108.1,159.5,108.1z"/>
	<path class="st0" d="M4.3,71c5-26.6,40.1-62,65.1-65.6c-4.9,8.1-11.5,15.9-14.5,24.9c-4.5,13.3-12.5,20.9-25.6,25.6
		C20.3,59.1,12.6,65.8,4.3,71z"/>
	<path class="st0" d="M70.4,202.2c-29.3-7.5-59.5-37.8-66.1-66.1c7.1,4.6,13.5,11,21.3,13.5c16.2,5.3,26,15.2,31.4,31.3
		C59.5,188.5,65.7,194.9,70.4,202.2z"/>
	<path class="st0" d="M201.9,72.2c-12.4-11.5-25.8-18-40-23.4c-2.1-0.8-4.2-3.2-5-5.4c-5-14.2-12-27.1-22.4-38.4
		C158.9,8.5,193.9,39,201.9,72.2z"/>
	<path class="st0" d="M135.2,202.5c9.9-11.8,16.9-24.9,22.1-39.3c0.8-2.3,3.4-4.5,5.8-5.7c13.1-7,26.4-13.7,39.1-20.2
		C190.9,168.8,168.6,191.2,135.2,202.5z"/>
	<path class="st0" d="M167,99c-1.7-13.8-3.2-26.9-4.9-40.9c20.7,8,38.3,17.8,45.6,40.9C193.4,99,180.4,99,167,99z"/>
	<path class="st0" d="M0,107.5c12.2,0,24.1-0.1,36.1,0.1c1.3,0,3.5,1.9,3.6,3.2c1.6,12.5,2.8,25,4.1,37.6
		C26.1,144.9-1.7,123.8,0,107.5z"/>
	<path class="st0" d="M0.1,99c-2-15.2,23.8-35.4,44-40.3c-1,6.7-2.2,13.3-3,19.8c-0.8,6.6-1.3,13.3-1.9,20.5C26.1,99,13.1,99,0.1,99
		z"/>
	<path class="st0" d="M162,149.4c1.8-14.6,3.4-27.8,5-41.5c13,0,26.1,0,40.3,0C201.1,131.5,182.3,140.3,162,149.4z"/>
	<path class="st0" d="M336.7,103.9c-0.6,30.8-10.8,57.2-31.4,79.4c-0.3,0.3-0.7,0.6-1.1,0.9c-2.5,1.4-5.4-1.2-4.2-3.8
		c0.2-0.5,0.5-1,0.9-1.3c20.8-23.3,30.7-50.6,29.1-81.7c-1.3-25.7-10.4-48.5-28-67.6c-0.8-0.9-1.8-1.7-2.2-2.8
		c-0.1-0.2-0.2-0.5-0.2-0.7c-0.8-2.8,2.7-5.1,4.8-3c0,0,0,0,0,0C326.2,45.9,336.2,73.3,336.7,103.9z"/>
	<path class="st0" d="M98.6,0c0,13.1,0,26.1,0,39.6c-13.4,1.7-26.6,3.3-39.8,5C59.7,26.8,81,2.8,98.6,0z"/>
	<path class="st0" d="M58.2,162.6c13.8,1.7,27,3.3,40.4,5c0,13.2,0,26.1,0,39C84.3,208.5,63.4,184.3,58.2,162.6z"/>
	<path class="st0" d="M107.7,206.7c0-12.9,0-25.8,0-39.2c13.3-1.6,26.5-3.2,39.7-4.8C145.2,182.3,124,205.9,107.7,206.7z"/>
	<path class="st0" d="M107.6,39.7c0-13.5,0-26.4,0-39.3c15.3-1.1,34.9,23.6,40.2,43.9C134.5,42.8,121.4,41.3,107.6,39.7z"/>
	<path class="st0" d="M288.8,102.6c0,0.2,0,0.3,0,0.5c-0.8,18.2-6,33.9-18.4,46.7c0,0,0,0,0,0c-2.2,2.2-6-0.4-4.8-3.2
		c0.1-0.3,0.3-0.6,0.5-0.9c9-10.8,14.6-22.8,15.8-37c1.3-16.5-3.1-31.2-13.4-44.1c-1-1.3-2.6-2.4-3.1-3.9c-0.2-0.4-0.3-0.8-0.4-1.3
		c-0.5-2.4,2-4.4,4.1-3.4c0.3,0.2,0.6,0.4,0.8,0.6c9.1,9.9,15,21.5,17.5,34.7C288.3,95.3,288.5,99.3,288.8,102.6z"/>
	<path class="st0" d="M242.7,92.8c3.3,7.2,3.1,15.5-0.4,22.6c-0.8,1.6-1.6,3.1-2.5,4.6c-0.3,0.5-0.8,0.8-1.5,1
		c-2,0.7-4.2-0.9-3.9-3.1c0.1-0.4,0.2-0.7,0.4-1c7.2-9,6.6-17.9,0.2-27c-0.1-0.1-0.2-0.3-0.2-0.4c-1-2.3,1.5-4.7,3.9-3.8
		c0.5,0.2,0.9,0.4,1,0.8C240.8,88.6,241.8,90.6,242.7,92.8z"/>
</g>
</svg>
